<?xml version="1.0" encoding="UTF-8" standalone="no"?>
<!-- Created with Inkscape (http://www.inkscape.org/) -->

<svg
   width="127.99999"
   height="127.99999"
   viewBox="0 0 33.866665 33.866665"
   version="1.1"
   id="svg5"
   xml:space="preserve"
   xmlns="http://www.w3.org/2000/svg"
   xmlns:svg="http://www.w3.org/2000/svg"><defs
     id="defs2" /><g
     id="layer1"
     transform="translate(-65.781435,-77.956011)"><circle
       style="fill:#c1ffff;fill-opacity:1;stroke:none;stroke-width:2.43591;stroke-linecap:round;stop-color:#000000"
       id="path354"
       cx="82.714767"
       cy="94.889343"
       r="16.933332" /><g
       aria-label="#!"
       id="text1361"
       style="font-size:20.2975px;line-height:1.25;fill:#1b5858;stroke-width:0.845731"><path
         d="m 89.057739,88.899798 q 0.0099,0.277505 -0.06938,0.44599 -0.07929,0.158574 -0.188307,0.247772 -0.118931,0.10902 -0.277505,0.148664 H 87.6603 l -1.080287,0.109019 q -0.356792,-0.01982 -0.66403,-0.22795 l -0.247772,0.118931 q -0.01982,0.01982 -0.04955,0.02973 -0.01982,0.0099 -0.03964,0.01982 l -0.03964,0.118931 -0.336971,1.110019 -0.386524,0.366703 -0.02973,0.644208 -0.307238,0.346881 q 0,0.04955 0.118931,0.22795 l 0.118931,0.198218 -0.33697,1.149663 q 0.158574,0.03964 0.33697,0.02973 0.188307,-0.01982 0.327059,0.01982 l 0.287416,-0.09911 0.743317,-0.05947 0.485633,0.07929 v -0.118931 l 0.346881,-0.158574 0.227951,0.198218 0.386524,0.168485 q 0.148664,0.07929 0.257683,0.178396 0.09911,0.0892 0.178396,0.208128 0.0892,0.118931 0.10902,0.267594 0.01982,0.148664 -0.01982,0.267594 -0.02973,0.118931 -0.07929,0.198218 -0.04955,0.09911 -0.11893,0.168485 l -0.307238,0.21804 v 0.128841 h -0.168485 l -0.07929,0.06938 -0.723495,-0.02973 -0.44599,0.01982 q -0.237861,0 -0.317148,-0.03964 -0.0892,-0.03964 -0.188307,-0.148663 l -0.267594,-0.05947 -0.07929,0.05947 0.02973,0.148663 H 85.15285 l -0.07929,-0.06938 -0.525277,0.128841 h -0.02973 l -0.78296,-0.05946 q -0.0099,0.04955 -0.0099,0.09911 0,0.03964 -0.0099,0.06938 -0.0099,0.04956 -0.01982,0.07929 0,0.01982 0,0.03964 -0.05947,0.178396 -0.257683,0.515366 l 0.04955,0.198218 0.247772,0.06938 -0.07929,0.307238 -0.227951,1.308237 -0.406346,0.356792 -0.04955,0.346881 q -0.04955,0.09911 -0.237861,0.138753 v 0.22795 l -0.198218,-0.02973 q 0,0.0892 -0.05946,0.138753 -0.04956,0.04955 -0.188307,0.05947 -0.128842,0.0099 -0.396436,-0.04955 -0.267594,-0.05947 -0.406346,-0.168485 -0.138752,-0.118931 -0.198218,-0.237862 -0.06938,-0.128841 -0.06938,-0.287416 l 0.22795,-0.872158 0.198218,-1.129841 q 0.0892,-0.33697 0.396436,-0.614475 l -0.03964,-0.287416 q -0.01982,-0.09911 -0.03964,-0.158574 -0.01982,-0.06938 -0.02973,-0.118931 l -0.237861,-0.01982 V 95.50045 q -0.307238,-0.09911 -0.426169,-0.09911 -0.386524,0 -0.505455,0.267594 l -0.287416,-0.01982 -2.01191,0.0099 q -0.44599,0 -0.723495,-0.03964 -0.277505,-0.03964 -0.564921,-0.118931 l 0.06938,-0.07929 q -0.01982,-0.0099 -0.03964,-0.01982 -0.01982,-0.0099 -0.03964,-0.01982 h -0.0099 v -0.0099 q -0.03964,-0.01982 -0.09911,-0.03964 -0.10902,0.10902 -0.118931,0.178396 0,0.0099 -0.03964,0.237861 l 0.188307,0.148664 -0.0892,0.44599 -0.128841,0.386524 -0.04955,0.04955 q -0.10902,0.317148 -0.22795,0.644207 -0.10902,0.317149 -0.227951,0.644208 l -0.158574,0.386525 q -0.04955,0.02973 -0.10902,0.10902 -0.04955,0.07929 -0.09911,0.168485 -0.03964,0.0892 -0.07929,0.168485 -0.02973,0.06938 -0.03964,0.09911 -0.0892,0.22795 -0.287416,0.366703 -0.188307,0.138752 -0.396436,0.178396 -0.218039,0.04955 -0.406346,-0.01982 -0.188307,-0.05947 -0.297327,-0.21804 -0.138752,-0.198217 -0.178396,-0.396435 -0.03964,-0.208129 -0.01982,-0.386525 0.0099,-0.07929 0.01982,-0.158574 0.01982,-0.07929 0.03964,-0.128842 0.01982,-0.05947 0.03964,-0.109019 l 0.07929,-0.356792 0.327059,-0.346882 -0.138753,-0.287415 0.267594,-0.376614 0.198218,-0.366703 0.21804,-0.297327 -0.01982,-0.416257 0.04955,-0.09911 -0.802782,-0.03964 -0.56492,0.02973 q -0.04956,-0.03964 -0.138753,-0.06938 -0.07929,-0.02973 -0.168485,-0.03964 -0.0892,-0.01982 -0.168485,-0.02973 -0.06938,-0.0099 -0.09911,-0.0099 -0.22795,-0.01982 -0.406346,-0.148663 -0.178396,-0.128842 -0.287416,-0.317149 -0.10902,-0.188307 -0.10902,-0.386525 0,-0.198217 0.09911,-0.356792 0.128842,-0.198217 0.297327,-0.297326 0.178396,-0.09911 0.346881,-0.138753 0.188307,-0.03964 0.386525,-0.03964 l 0.346881,-0.03964 0.584742,0.168485 0.21804,-0.22795 0.426168,0.148663 0.376614,0.06938 0.178396,0.06938 0.128841,-0.336971 0.188307,-0.584742 0.317149,-0.465812 0.148663,-0.267594 -0.188307,-0.198218 0.525277,-1.427168 q 0.168485,0 0.287416,-0.168485 l 0.10902,-0.703673 -0.168485,-0.06938 h -0.06938 l -0.406346,-0.168485 -0.574832,0.158574 -0.277505,-0.01982 -0.921712,0.05947 -0.06938,0.01982 h -0.04955 l -0.267594,-0.05947 -0.317148,-0.07929 q -0.09911,-0.01982 -0.208129,-0.07929 -0.0892,-0.04955 -0.198218,-0.138753 -0.09911,-0.09911 -0.188307,-0.267594 -0.0892,-0.178396 -0.11893,-0.307237 -0.02973,-0.138753 -0.02973,-0.247772 0.0099,-0.118931 0.04955,-0.21804 0.03964,-0.09911 0.07929,-0.208129 0.03964,-0.109019 0.11893,-0.168485 0.07929,-0.06938 0.158574,-0.109019 0.09911,-0.03964 0.198218,-0.06938 l 0.227951,-0.09911 0.11893,-0.0099 0.21804,0.01982 0.574831,0.03964 0.297327,-0.01982 q 0.178396,0.01982 0.237861,0.04955 l 0.406347,0.237861 0.158574,0.02973 q 0.02973,-0.198218 0.05947,-0.247773 0.05947,-0.03964 0.21804,-0.02973 l 0.188307,-0.01982 q 0.118931,0 0.257683,0.237861 h 0.188307 l 0.168485,0.01982 0.06938,0.0099 0.03964,-0.03964 q 0.01982,-0.07929 0.03964,-0.158574 0.02973,-0.07929 0.04955,-0.158574 0.06938,-0.227951 0.208129,-0.416257 0.138752,-0.188307 0.247772,-0.366703 l -0.0099,-0.307238 0.158574,-0.78296 0.227951,-0.475723 -0.118931,-0.02973 -0.04955,-0.396435 0.257684,-0.188307 0.267594,-0.346881 q 0.109019,-0.118931 0.237861,-0.21804 0.10902,-0.07929 0.247772,-0.138752 0.148663,-0.05947 0.297327,-0.03964 0.148663,0.01982 0.247772,0.0892 0.10902,0.05947 0.178396,0.128842 0.07929,0.07929 0.128842,0.178396 l 0.11893,0.386525 0.128842,0.02973 -0.04955,0.168485 0.03964,0.09911 -0.237861,0.743317 -0.10902,0.475723 q -0.07929,0.237861 -0.128842,0.307237 -0.05946,0.06938 -0.198218,0.148663 l -0.138752,0.267595 0.03964,0.0892 0.148663,0.01982 -0.04955,0.158575 -0.0892,0.05947 -0.02973,0.574831 -0.0099,0.01982 -0.0099,0.02973 0.763138,0.01982 0.426169,0.267594 0.594653,-0.138753 0.396436,0.21804 q 0.02973,-0.01982 0.06938,-0.05947 0.03964,-0.03964 0.10902,-0.11893 l 0.158574,-0.168485 1.952445,-0.01982 0.04955,-0.227951 0.247773,-0.346881 0.01982,-0.05947 0.277505,-0.366703 0.0099,-0.634297 0.09911,-0.277505 0.33697,-0.961356 0.0099,-0.07929 0.0099,-0.04955 0.128842,-0.247772 0.168485,-0.307237 q 0.01982,-0.09911 0.0892,-0.198218 0.05946,-0.07929 0.168485,-0.148663 0.11893,-0.07929 0.317148,-0.128842 0.227951,-0.04955 0.455901,0.02973 0.237861,0.07929 0.416257,0.218039 0.07929,0.07929 0.118931,0.178396 0.04955,0.0892 0.06938,0.178396 0.01982,0.10902 0.0099,0.21804 l 0.01982,0.257683 -0.0099,0.118931 -0.07929,0.218039 -0.208129,0.574832 -0.06938,0.307237 q -0.01982,0.0892 -0.04955,0.148664 -0.02973,0.04955 -0.04955,0.07929 l -0.346881,0.346881 -0.07929,0.158574 q 0.198218,0.07929 0.21804,0.128842 0.02973,0.03964 -0.01982,0.22795 l -0.03964,0.188307 q -0.02973,0.138752 -0.297326,0.208129 l -0.04955,0.178396 h 0.237861 l 1.308238,-0.04955 0.436079,0.148664 0.317148,-0.03964 q 0.09911,0.02973 0.198218,0.188307 l 0.227951,0.138752 q 0.07929,0 0.138752,0.05947 0.04955,0.04955 0.09911,0.188307 0.04955,0.138752 0.06938,0.406346 z m -3.131841,-0.792871 0.0099,0.01982 0.02973,-0.0099 v -0.118931 l -0.01982,0.03964 z m -3.657118,6.015909 0.04955,-0.208128 q 0.04955,-0.0099 0.09911,-0.0099 0.05947,-0.0099 0.11893,-0.01982 l 0.09911,-0.158574 0.396436,-1.397435 0.376613,-0.594654 q 0,-0.128841 -0.148663,-0.346881 l 0.128842,-0.376614 0.297326,-1.22895 -0.208128,-0.06938 -1.367703,-0.01982 -0.644208,-0.198218 q -0.0892,0.0099 -0.277505,0.227951 l -0.376613,-0.01982 -1.44699,0.03964 q -0.07929,0 -0.257683,-0.0892 l -0.02973,0.11893 -0.386525,1.020822 -0.138752,-0.03964 q -0.208129,0.317149 -0.227951,0.396436 -0.11893,0.396435 0.09911,0.594653 l -0.109019,0.297327 -0.525278,1.78396 0.673941,0.05947 0.584742,0.0099 0.495545,0.178396 0.277505,0.05946 0.128841,-0.237861 1.427168,0.09911 q 0.03964,0.148663 0.227951,0.22795 z"
         style="font-family:'Comic Papyrus';-inkscape-font-specification:'Comic Papyrus'"
         id="path2439" /><path
         d="m 92.804054,86.640115 -0.06938,0.693763 0.04955,0.604564 v 0.22795 l -0.09911,0.842426 H 92.53646 q -0.09911,0.237861 -0.09911,0.346881 -0.0099,0.327059 0.257684,0.416257 l -0.02973,0.247772 -0.0099,1.674941 q -0.0099,0.366703 -0.04955,0.604564 -0.03964,0.22795 -0.118931,0.465812 l -0.07929,-0.05947 q -0.10902,0.138753 -0.10902,0.208129 0,-0.0099 0.0099,0.03964 0.0099,0.03964 0.02973,0.138752 l 0.218039,0.06938 0.03964,0.356792 -0.0099,0.317149 -0.02973,0.03964 -0.05947,1.050554 -0.01982,0.32706 q -0.03964,0.02973 -0.06938,0.09911 -0.02973,0.06938 -0.04955,0.148663 -0.0099,0.06938 -0.01982,0.138752 -0.0099,0.05947 -0.0099,0.07929 -0.0099,0.188306 -0.138753,0.33697 -0.128841,0.138752 -0.307237,0.22795 -0.188307,0.0892 -0.386525,0.10902 -0.198218,0.0099 -0.356792,-0.06938 -0.208129,-0.10902 -0.307238,-0.257683 -0.09911,-0.158575 -0.148663,-0.297327 -0.04955,-0.158574 -0.03964,-0.327059 l -0.03964,-0.287416 0.21804,-0.33697 -0.227951,-0.188307 0.148663,-0.346881 0.07929,-0.317149 0.11893,-0.267594 -0.138752,-0.317148 0.04955,-0.227951 -0.03964,-0.188307 0.02973,-0.297326 -0.03964,-0.32706 0.07929,-0.683851 0.0099,-0.475723 0.188307,-0.406346 0.06938,-0.237861 -0.237861,-0.10902 0.11893,-1.179396 q 0.158574,-0.04955 0.227951,-0.188307 l -0.0892,-0.55501 -0.208129,-0.04955 q -0.05947,-0.33697 -0.0892,-0.723495 -0.02973,-0.396435 -0.01982,-0.862247 0,-0.188307 0.0892,-0.356792 0.0892,-0.168485 0.138753,-0.317149 l -0.09911,-0.237861 -0.05947,-0.614475 0.07929,-0.406347 h -0.118931 l -0.158574,-0.277505 0.198217,-0.198217 0.158575,-0.307238 q 0,0 0.04955,-0.06938 0.04955,-0.06938 0.128842,-0.148663 0.0892,-0.0892 0.198217,-0.158575 0.118931,-0.07929 0.267594,-0.09911 0.148664,-0.01982 0.267594,0.0099 0.128842,0.01982 0.208129,0.05947 0.09911,0.03964 0.168485,0.09911 l 0.227951,0.267594 0.128841,0.138752 0.04955,0.67394 0.01982,0.376614 q 0,0.188307 -0.04955,0.267594 -0.02973,0.05947 -0.148663,0.148664 l -0.05947,0.22795 0.05947,0.06938 0.148663,-0.02973 v 0.128841 l -0.06938,0.06938 0.128841,0.436079 z m -0.455901,11.932711 q 0.02973,0.04955 0.118931,0.247772 0.0892,0.198218 0.10902,0.416257 0,0.09911 0.01982,0.198218 0.02973,0.0892 -0.07929,0.257683 -0.0892,0.10902 -0.21804,0.208129 -0.128842,0.109015 -0.307238,0.178395 h -0.01982 q -0.03964,0 -0.10902,0 -0.06938,0 -0.07929,-0.01 l -0.0099,-0.01 h -0.0099 v -0.01 l -0.03964,0.01 -0.257683,-0.109021 q -0.02973,-0.03964 -0.06938,-0.07929 -0.02973,-0.02973 -0.05947,-0.05946 -0.02973,-0.02973 -0.05947,-0.03964 -0.02973,-0.0099 -0.04955,0.01982 -0.0099,0.03964 -0.01982,0.07929 -0.0099,0.04955 -0.02973,0.07929 -0.0099,0.03964 -0.03964,0.01982 -0.05947,-0.02973 -0.178396,-0.128842 -0.10902,-0.09911 -0.128842,-0.138752 -0.01982,-0.02973 -0.02973,-0.128842 -0.0099,-0.09911 -0.01982,-0.11893 -0.0099,-0.02973 -0.02973,-0.06938 -0.01982,-0.0099 -0.109019,-0.05947 -0.07929,-0.05947 -0.0892,-0.0892 0,-0.01982 0,-0.118931 0.0099,-0.09911 0.0099,-0.218039 0,-0.118931 0,-0.208129 0.0099,-0.09911 0.0099,-0.11893 0.07929,-0.0099 0.118931,-0.0099 0.03964,-0.0099 0.04955,-0.0099 0.01982,-0.0099 0.01982,-0.07929 0.0099,-0.07929 0.01982,-0.09911 -0.0099,-0.0099 0.01982,0.0099 0.02973,0.0099 0.06938,0.02973 0.03964,0.01982 0.07929,0.02973 0.04956,0 0.06938,-0.02973 0.01982,-0.04955 0,-0.11893 -0.0099,-0.07929 -0.02973,-0.148664 -0.02973,-0.07929 -0.06938,-0.158574 0.03964,0 0.0892,-0.0099 0.04955,-0.0099 0.10902,-0.01982 0.06938,-0.0099 0.158574,-0.02973 0.07929,-0.0099 0.10902,-0.01982 0.02973,-0.01982 0.158574,0.01982 0.07929,0.02973 0.128842,0.06938 0.05947,0.02973 0.09911,0.05946 0.03964,0.03964 0.06938,0.06938 0.0099,0.07929 0.03964,0.148663 0.01982,0.05947 0.04955,0.128841 0.02973,0.05947 0.07929,0.0892 0.03964,0.03964 0.0892,0.04955 0.05947,0 0.09911,0 0.04955,0 0.0892,0 0.03964,0 0.05947,0.02973 z"
         style="font-family:'Comic Papyrus';-inkscape-font-specification:'Comic Papyrus'"
         id="path2441" /></g><g
       aria-label="/esc"
       id="text1563"
       style="font-size:8.39208px;line-height:1.25;fill:#1b5858;stroke-width:0.209803"><path
         d="m 76.784827,100.08435 -2.131588,5.26183 0.822424,0.64619 2.677073,-5.4045 z"
         style="font-family:Jagged-World;-inkscape-font-specification:Jagged-World"
         id="path2444" /><path
         d="m 80.015775,105.13638 v -0.6378 l 1.938571,-0.1007 -0.176234,-2.94562 -3.10507,0.3189 0.285331,4.10372 2.802955,0.2182 -0.151058,-0.93152 z m 0,-2.7526 0.881169,-0.0839 v 1.36791 l -0.881169,0.0923 z"
         style="font-family:Jagged-World;-inkscape-font-specification:Jagged-World"
         id="path2446" /><path
         d="m 85.168509,102.77821 v -1.32595 h -2.970797 l 0.184626,3.1722 1.678416,0.15106 v 0.41121 l -1.863042,-0.35246 v 1.0574 l 2.567977,0.19302 0.40282,-2.29104 -1.762337,-0.0252 v -1.21685 z"
         style="font-family:Jagged-World;-inkscape-font-specification:Jagged-World"
         id="path2448" /><path
         d="m 88.584092,102.87891 0.07553,-1.42665 -3.289695,0.33568 0.28533,4.09534 2.802955,0.22658 0.05035,-1.21685 h -1.065795 l -0.03357,0.31051 -0.696543,-0.0588 v -2.70225 l 0.923129,0.0252 -0.04196,0.41121 z"
         style="font-family:Jagged-World;-inkscape-font-specification:Jagged-World"
         id="path2450" /></g></g></svg>
